<?xml version="1.0" encoding="UTF-8"?><svg xmlns="http://www.w3.org/2000/svg" xmlns:xlink="http://www.w3.org/1999/xlink" viewBox="0 0 357.1 244.65"><defs><style>.r{fill:#d65079;filter:url(#h);}.s{fill:#93b0b0;filter:url(#l);}.t{filter:url(#d);}.t,.u{fill:#6868ac;}.u{filter:url(#p);}.v{filter:url(#f);}.v,.w,.x{fill:#ecc371;}.w{filter:url(#n);}.x{filter:url(#j);}.y{font-family:Oswald-Bold, Oswald;font-size:17.32px;}</style><filter id="d" filterUnits="userSpaceOnUse"><feOffset dx="4" dy="4"/><feGaussianBlur result="e" stdDeviation="5"/><feFlood flood-color="#000" flood-opacity=".75"/><feComposite in2="e" operator="in"/><feComposite in="SourceGraphic"/></filter><filter id="f" filterUnits="userSpaceOnUse"><feOffset dx="4" dy="4"/><feGaussianBlur result="g" stdDeviation="5"/><feFlood flood-color="#000" flood-opacity=".75"/><feComposite in2="g" operator="in"/><feComposite in="SourceGraphic"/></filter><filter id="h" filterUnits="userSpaceOnUse"><feOffset dx="4" dy="4"/><feGaussianBlur result="i" stdDeviation="5"/><feFlood flood-color="#000" flood-opacity=".75"/><feComposite in2="i" operator="in"/><feComposite in="SourceGraphic"/></filter><filter id="j" filterUnits="userSpaceOnUse"><feOffset dx="4" dy="4"/><feGaussianBlur result="k" stdDeviation="5"/><feFlood flood-color="#000" flood-opacity=".75"/><feComposite in2="k" operator="in"/><feComposite in="SourceGraphic"/></filter><filter id="l" filterUnits="userSpaceOnUse"><feOffset dx="4" dy="4"/><feGaussianBlur result="m" stdDeviation="5"/><feFlood flood-color="#000" flood-opacity=".75"/><feComposite in2="m" operator="in"/><feComposite in="SourceGraphic"/></filter><filter id="n" filterUnits="userSpaceOnUse"><feOffset dx="4" dy="4"/><feGaussianBlur result="o" stdDeviation="5"/><feFlood flood-color="#000" flood-opacity=".75"/><feComposite in2="o" operator="in"/><feComposite in="SourceGraphic"/></filter><filter id="p" filterUnits="userSpaceOnUse"><feOffset dx="4" dy="4"/><feGaussianBlur result="q" stdDeviation="5"/><feFlood flood-color="#000" flood-opacity=".75"/><feComposite in2="q" operator="in"/><feComposite in="SourceGraphic"/></filter></defs><g id="a"/><g id="b"><g id="c"><g><path class="t" d="M75.54,157.02V64.61h-16.65v-18.15H211.1v18.15H100.11v92.4h-24.57Z"/><path class="v" d="M105.09,26.75V11.32h22.38v15.42h-22.38Zm.14,92.27V40.12h22.25V119.02h-22.25Z"/><path class="r" d="M116.26,165.02V86.12h21.84v6.28c2.91-2.82,5.94-4.82,9.08-6.01,3.14-1.18,6.35-1.77,9.62-1.77s5.94,.8,8.26,2.39c2.32,1.59,4.07,3.94,5.25,7.03,3.09-3.46,6.35-5.89,9.76-7.3,3.41-1.41,6.85-2.12,10.31-2.12,3.09,0,5.78,.75,8.05,2.25,2.27,1.5,4.05,3.69,5.32,6.55,1.27,2.87,1.91,6.3,1.91,10.31v61.28h-21.84v-58.96c0-2.18-.39-3.75-1.16-4.71-.77-.96-1.93-1.43-3.48-1.43-.91,0-2.05,.25-3.41,.75-1.36,.5-2.69,1.21-3.96,2.12v62.24h-21.57v-58.96c0-2.18-.41-3.75-1.23-4.71-.82-.96-2-1.43-3.55-1.43-1,0-2.16,.25-3.48,.75-1.32,.5-2.62,1.21-3.89,2.12v62.24h-21.84Z"/><path class="x" d="M188.85,116.02v-14.33l21.7-48.32h-20.06v-16.24h43.27v13.51l-21.98,49.14h22.25v16.24h-45.18Z"/><path class="s" d="M228.54,86.75v-15.42h22.38v15.42h-22.38Zm.14,92.27V100.12h22.25v78.89h-22.25Z"/><path class="w" d="M239.71,211.02v-78.89h22.25v7.92c2.91-2.91,5.94-5.19,9.08-6.82,3.14-1.64,6.44-2.46,9.9-2.46,3.28,0,5.98,.8,8.12,2.39,2.14,1.59,3.75,3.78,4.84,6.55,1.09,2.78,1.64,5.94,1.64,9.49v61.83h-22.11v-58.69c0-1.91-.32-3.37-.96-4.37-.64-1-1.82-1.5-3.55-1.5-.91,0-1.98,.25-3.21,.75-1.23,.5-2.48,1.21-3.75,2.12v61.69h-22.25Z"/><path class="u" d="M311.7,171.38c-5.73,0-10.65-1.02-14.74-3.07-4.09-2.05-7.23-5.05-9.42-9.01-2.18-3.96-3.28-8.71-3.28-14.26v-28.94c0-5.64,1.09-10.42,3.28-14.33,2.18-3.91,5.34-6.89,9.49-8.94s9.03-3.07,14.67-3.07,10.67,1,14.54,3c3.87,2,6.78,4.96,8.74,8.87,1.96,3.91,2.93,8.74,2.93,14.47v15.83h-31.67v15.15c0,2,.23,3.64,.68,4.91,.45,1.27,1.09,2.18,1.91,2.73,.82,.55,1.78,.82,2.87,.82s2.07-.25,2.93-.75c.86-.5,1.55-1.3,2.05-2.39,.5-1.09,.75-2.59,.75-4.5v-8.33h20.47v7.64c0,8.01-2.32,14.04-6.96,18.08-4.64,4.05-11.05,6.07-19.24,6.07Zm-5.46-49.82h11.19v-7.92c0-2.09-.25-3.73-.75-4.91-.5-1.18-1.18-2-2.05-2.46-.87-.45-1.89-.68-3.07-.68-1.09,0-2.03,.27-2.8,.82-.77,.55-1.39,1.48-1.84,2.8-.46,1.32-.68,3.21-.68,5.66v6.69Z"/></g><text class="y" transform="translate(59.1 239.68) scale(.97 1)"><tspan x="0" y="0">Design digital des actualités culturelles </tspan></text></g></g></svg>